<svg xmlns="http://www.w3.org/2000/svg" xmlns:xlink="http://www.w3.org/1999/xlink" version="1.1" x="0px" y="0px" viewBox="-17.5 -17.5 100 125" enable-background="new -17.5 -17.5 100 100" xml:space="preserve"><path d="M46.608,26.777l0.011-0.143l0.02-0.281l0.01-0.141l0.009-0.179l-0.01-0.094l-0.044-0.375  c-0.138-0.995-0.662-1.919-1.42-2.541c-0.309-0.273-0.673-0.46-1.041-0.63c-0.391-0.139-0.933-0.279-1.181-0.262l-0.232-0.013  l-0.203-0.01l-0.116,0.005l-0.466,0.021l-0.928,0.043c-1.234,0.061-2.464,0.12-3.688,0.18c-0.9,0.044-1.792,0.077-2.689,0.119  c0.16-0.601,0.162-1.138,0.04-1.621c0.033-0.033,0.069-0.062,0.102-0.097c0.173-0.159,0.307-0.481,0.399-0.774  c0.046-0.149,0.082-0.3,0.11-0.446c0.027-0.148-0.002-0.17,0.001-0.261c-0.012-0.246-0.022-0.488-0.034-0.729  c-0.054-0.26-0.097-0.516-0.216-0.75c-0.186-0.483-0.541-0.876-0.935-1.146c-0.34-0.218-0.72-0.327-1.078-0.361  c-0.18-0.022-0.389-0.007-0.558,0c-0.171,0.012-0.278,0.071-0.419,0.093c-0.296,0.076-0.566,0.121-0.833,0.1  c0.26-0.063,0.51-0.176,0.723-0.337c0.508-0.388,0.779-0.958,0.937-1.59c0.041-0.194,0.074-0.398,0.091-0.581l-0.018-0.296  l-0.004-0.074l0.005-0.124l-0.001-0.007l-0.002-0.015l-0.004-0.03l-0.01-0.06l-0.043-0.235c-0.033-0.156-0.058-0.31-0.125-0.455  c-0.2-0.6-0.632-1.086-1.12-1.394c-0.43-0.251-0.855-0.358-1.36-0.357c-0.263-0.019-0.362,0.066-0.544,0.093  c-0.246,0.038-0.34,0.101-0.518,0.139c-0.632,0.167-1.264,0.197-1.915-0.164c-0.008-0.004-0.014,0.017-0.021,0.025  c-0.367-0.458-0.749-0.904-1.168-1.325c-0.053-0.053-0.157-0.054-0.275-0.027c-0.001-0.086-0.005-0.167-0.012-0.213  c-0.415-2.553-1.007-0.796-1.455-0.603c-0.625,0.27-1.26-0.066-1.883,0.563C22.48,9.431,22.469,9.5,22.46,9.597  c-0.058,0.02-0.109,0.042-0.139,0.07c-2.211,2.093-0.055,4.104,0.458,5.831c0.715,2.405,0.845,4.953,1.908,7.288  c-3.105,0.021-6.229-0.04-9.414-0.27c-0.034-0.002-0.062,0.002-0.093,0.004c1.304-1.588-0.584-2.004-1.131-2.749  c-0.82-1.115-1.101-2.504-2.246-3.464c-0.027-0.022-0.107-0.013-0.209,0.014c0.004-0.071,0.006-0.136,0.002-0.175  c-0.26-2.588-1.138-0.907-1.696-0.766c-0.779,0.197-1.511-0.209-2.322,0.347C7.56,15.74,7.54,15.804,7.521,15.895  c-0.058,0.026-0.107,0.054-0.135,0.082c-2.018,2.036,0.233,3.253,0.856,4.529c0.871,1.781,1.175,3.778,2.385,5.442  c0.106,0.146,0.965-0.074,1.063-0.305c0.458-1.081-0.009-1.886-0.407-2.706c-0.434-0.894-0.815-1.811-1.34-2.673  c-0.586-0.963-1.346-1.826-1.737-2.825c0.081-0.015,0.162-0.038,0.243-0.058c0.39-0.097,0.777-0.136,1.176-0.329  c0.546-0.264,1.096-0.823,1.586-0.588c-0.198,0.092-0.379,0.202-0.421,0.285c-0.441,0.881,0,1.37,0.375,1.883  c0.409,0.561,0.768,1.148,1.264,1.667c0.827,0.864,2.041,1.476,1.868,2.81c-0.008,0.064,0.307-0.063,0.469-0.168  c0.038,0.068,0.112,0.127,0.227,0.165c3.978,1.276,8.806,1.476,13.713,1.331c2.454-0.072,4.928-0.23,7.325-0.382  c1.199-0.072,2.38-0.143,3.526-0.212c0.574-0.027,1.141-0.055,1.697-0.081c0.278-0.01,0.555-0.021,0.828-0.031l0.408-0.012  l0.025-0.001h0.007l0.096,0.007l0.201,0.016c0.091,0.008,0.192,0.012,0.274,0.024l0.17,0.06c0.112,0.026,0.233,0.06,0.363,0.142  c0.263,0.116,0.497,0.302,0.69,0.515c0.397,0.4,0.62,1.061,0.635,1.537l-0.051,0.562c-0.042,0.133-0.086,0.242-0.117,0.37  c-0.113,0.26-0.266,0.527-0.467,0.746c-0.402,0.442-0.971,0.726-1.567,0.775c-2.904,0.065-6.002,0.033-8.995,0.058  c-6.036,0.028-12.067,0.102-18.048,0.417c-0.344,0.018-0.604,0.129-0.771,0.271c-0.118-0.062-0.261-0.12-0.336-0.127  c-2.693-0.268-1.648,1.643-1.886,2.605c-0.319,1.292-1.143,2.366-1.212,3.773c-0.704-2.158-1.236-0.459-1.741-0.225  c-0.169,0.079-0.343,0.124-0.518,0.157c0.703-0.918,0.217-2.364,0.399-3.354c0.358-1.95,1.3-3.736,1.314-5.794  c0.001-0.181-0.82-0.514-1.036-0.386c-1.011,0.597-1.113,1.522-1.28,2.417c-0.182,0.977-0.42,1.94-0.509,2.946  c-0.15,1.676,0.164,3.408-1.036,4.74c-0.055,0.063,0.23,0.186,0.425,0.218c-0.005,0.279,0.045,0.813,0.111,0.933  c0.411,0.737,0.743,0.514,1.078,0.36c0.366-0.168,0.738-0.278,1.094-0.543c0.593-0.438,1.107-1.331,1.805-0.671  c0.035,0.033,0.01-0.331-0.024-0.516c0.211,0.171,0.731,0.42,0.894,0.382c0.959-0.225,1.053-0.876,1.208-1.493  c0.168-0.673,0.391-1.324,0.472-2.038c0.118-1.04-0.102-2.184,0.602-2.936c0.061,0.173,0.272,0.327,0.687,0.386  c2.526,0.362,5.091,0.508,7.67,0.554c-0.152,0.58-0.183,1.186-0.229,1.787c-0.096,1.257-0.25,2.51-0.25,3.784  c-0.001,2.121,0.469,4.21-0.619,6.135c-0.05,0.088,0.247,0.179,0.446,0.177c-0.027,0.274-0.027,0.82,0.019,0.947  c0.282,0.773,0.572,0.581,0.859,0.459c0.313-0.133,0.628-0.208,0.941-0.438c0.521-0.382,1.014-1.223,1.537-0.5  c0.03,0.041,0.038-0.445,0.014-0.589c-0.416-2.553-1.007-0.795-1.455-0.603c-0.283,0.122-0.568,0.122-0.853,0.142  c1.532-1.321,0.589-3.498,0.705-5.046c0.155-2.091,0.722-4.131,0.811-6.239c2.243,0,4.493-0.057,6.734-0.107  c-0.821,1.182-1.063,2.844-1.655,3.981c-1.355,2.605-3.242,4.918-4.29,7.712c-0.092,0.245,0.604,0.798,0.895,0.651  c0.492-0.249,0.879-0.571,1.205-0.938c0.357,0.329,0.74,0.372,1.126,0.284c0.159-0.036,0.319-0.094,0.479-0.161l0.06-0.025  l0.03-0.014l0.007-0.003L29.633,42l0.001-0.001c-0.007,0.001-0.006,0,0,0l0,0c0.01-0.001,0.008,0,0.006,0  c0.017-0.001,0.049-0.003,0.122-0.007h0l0.014-0.009l0.113-0.066l0.222-0.137c0.203-0.109,0.495-0.271,0.675-0.409  c0.173-0.158,0.326-0.298,0.458-0.418c0.396-0.361,0.676-0.809,0.858-1.285c0.077-0.245,0.144-0.491,0.148-0.748l0.014-0.189  c-0.004-0.17-0.011-0.131-0.017-0.207c-0.016-0.105-0.012-0.175-0.046-0.311c-0.104-0.486-0.359-0.893-0.688-1.187  c0.122,0.014,0.245,0.001,0.368-0.033l0.049-0.015l0.003-0.001l0.148-0.008l0.001-0.001l0.006-0.002l0.012-0.006l0.023-0.011  l0.094-0.047c0.059-0.036,0.121-0.073,0.186-0.112c0.037-0.031,0.177-0.099,0.287-0.166c0.112-0.067,0.217-0.139,0.314-0.21  c0.355-0.301,0.541-0.595,0.747-0.842c0.565-0.664,0.903-1.471,0.771-2.353c-0.045-0.174-0.026-0.282-0.136-0.506  c-0.097-0.206-0.203-0.417-0.336-0.579c-0.148-0.139-0.305-0.265-0.463-0.371c-0.159-0.081-0.339-0.124-0.506-0.156  c0.218-0.397,0.474-0.774,0.756-1.137c2.368-0.048,4.736-0.096,7.107-0.144l1.13-0.024c0.205-0.009,0.339,0.002,0.604-0.024  c0.258-0.029,0.519-0.049,0.771-0.105c1.019-0.231,1.915-0.871,2.486-1.716c0.272-0.423,0.499-0.881,0.623-1.474L46.608,26.777z   M32.782,17.726c0.411,0.151,0.6,0.669,0.573,1.057c-0.336-0.341-0.693-0.663-1.034-0.98C32.447,17.706,32.661,17.667,32.782,17.726  z M29.054,12.915c0.159-0.036,0.319-0.093,0.478-0.161l0.06-0.025l0.029-0.013l0.008-0.003l0.003-0.002l0.002,0  c0.114,0.005-0.154-0.008-0.126-0.007l0.001,0l0.016-0.005l0.124-0.042l0.246-0.089c0.1-0.046,0.1-0.104,0.2-0.147  c0.094-0.006,0.208-0.021,0.291,0.016c0.248,0.086,0.433,0.302,0.556,0.541c0.048,0.126,0.098,0.254,0.103,0.394l0.017,0.103  c0.008-0.072-0.004,0.064-0.004,0.086c-0.009,0.087-0.006,0.218-0.024,0.271c-0.083,0.403-0.356,0.918-0.857,1.329  c-0.497-0.731-0.979-1.474-1.476-2.207C28.816,12.951,28.935,12.942,29.054,12.915z M25.655,22.781  c0.062-0.036,0.114-0.075,0.135-0.123c0.558-1.246,0.159-2.352-0.168-3.46c-0.357-1.209-0.658-2.435-1.11-3.625  c-0.577-1.521-1.4-2.928-1.605-4.486c0.144,0.034,0.289-0.044,0.433-0.105c0.314-0.133,0.629-0.208,0.942-0.438  c0.423-0.309,0.826-0.905,1.242-0.742c-0.202,0.118-0.373,0.285-0.367,0.437c0.061,1.524,0.956,2.562,1.785,3.626  c0.905,1.162,1.765,2.36,2.75,3.467c1.502,1.689,3.253,3.084,4.088,5.182c-1.255,0.057-2.514,0.123-3.767,0.166  C28.563,22.731,27.11,22.762,25.655,22.781z M30.356,39.499c-0.051,0.182-0.196,0.407-0.31,0.561  c-0.035,0.106-0.264,0.162-0.393,0.238c-0.07,0.063-0.292,0.108-0.43,0.152c-0.119,0.031-0.238,0.052-0.357,0.072  c0.142-0.263,0.278-0.528,0.416-0.792c0.242-0.464,0.491-0.925,0.738-1.387c0.056,0.055,0.134,0.109,0.206,0.135  c0.011-0.006,0.034-0.023,0.066-0.016l0.071,0.288l0.018,0.072l0,0.002c0,0.012-0.003-0.073-0.005-0.116l0,0.001l0,0.004  l0.001,0.007l0.002,0.014l0.014,0.057c0.01,0.038,0.036,0.083,0.028,0.121C30.461,39.087,30.417,39.268,30.356,39.499z   M30.878,36.643c0.003-0.008,0.007-0.016,0.011-0.023c0.009,0.012,0.018,0.027,0.026,0.038  C30.903,36.652,30.891,36.646,30.878,36.643z M32.356,33.191c0.044,0.048-0.008,0.018,0.027-0.012  c0.014-0.015,0.038-0.03,0.069-0.043c0.034-0.015,0.054,0.117,0.082,0.169l0.081,0.231l0.04,0.115l0.009,0.029l0,0.001  c-0.008-0.11-0.011-0.16-0.013-0.184c0.001,0.014,0.002,0.026,0-0.002l0,0c-0.001-0.024-0.001-0.015,0,0l0,0.001v0.001l0.001,0.003  l0.001,0.006l0.006,0.021c0.014,0.057,0.061,0.127,0.057,0.193c0.043,0.147,0.019,0.3-0.001,0.509  c-0.029,0.166-0.082,0.362-0.196,0.553c-0.052,0.095-0.104,0.158-0.179,0.251c-0.077,0.088-0.234,0.137-0.349,0.195  c-0.158,0.063-0.331,0.096-0.508,0.11c0.303-0.728,0.577-1.461,0.872-2.177C32.357,33.173,32.353,33.186,32.356,33.191z"/><path d="M22.479,27.438c0.697-0.133,1.398-0.208,2.094-0.438c1.16-0.382,2.255-1.222,3.417-0.499  c0.066,0.041,0.084-0.445,0.033-0.589c-0.922-2.553-2.239-0.796-3.235-0.603c-1.391,0.27-2.8-0.066-4.188,0.563  c-0.122,0.055-0.164,0.94-0.03,1.105C21.195,27.751,21.84,27.559,22.479,27.438z"/><path d="M34.825,27.438c0.936-0.133,1.875-0.208,2.81-0.438c1.557-0.382,3.026-1.222,4.585-0.499  c0.088,0.041,0.113-0.445,0.044-0.589c-1.238-2.553-3.005-0.796-4.341-0.603c-1.866,0.27-3.758-0.066-5.62,0.563  c-0.163,0.055-0.22,0.94-0.041,1.105C33.102,27.751,33.968,27.559,34.825,27.438z"/><polygon points="29.635,41.999 29.641,41.999 29.635,41.999 "/><polygon points="30.382,38.825 30.382,38.825 30.382,38.826 "/><polygon points="32.651,33.497 32.651,33.499 32.651,33.497 "/><path d="M77.703,32.733c-2.663-3.348-6.454-5.717-10.564-6.519c-1.754-0.355-3.552-0.44-5.329-0.287  c2.184-1.244,4.028-2.978,5.889-4.663l1.808-1.628l0.072-0.065c0.517-0.465,0.558-1.26,0.093-1.776  c-0.05-0.055-0.108-0.109-0.165-0.153c-1.893-1.463-3.787-2.93-5.728-4.324c-1.033-0.742-2.068-1.452-3.097-2.158  c2.485-2.479,4.995-4.86,8.064-6.782c0.258-0.162,0.013-0.59-0.263-0.548c-0.164,0.025-0.325,0.062-0.487,0.096  c0.868-0.238,1.006-0.875-0.238-1.013c-6.962-0.773-14.144-0.582-21.259-0.46c-7.765,0.133-15.566,0.208-23.318,0.438  C10.263,3.272-1.93,4.112-14.865,3.39c-0.556-0.031-0.808,0.241-0.645,0.438c-0.019,0.081-0.001,0.182,0.074,0.296  c1.634,2.477,3.896,4.84,6.447,7.105c-2.483,2.125-4.915,4.41-7.247,6.601l-0.091,0.085c-0.403,0.378-0.422,1.012-0.044,1.415  c0.041,0.043,0.089,0.085,0.136,0.12c1.917,1.414,3.768,2.786,5.44,4.12c1.022,0.825,2.047,1.652,3.075,2.481  c-2.737,2.305-5.479,4.615-8.224,6.927c-0.255,0.211-0.291,0.588-0.08,0.843c0.022,0.027,0.054,0.058,0.08,0.079  c2.816,2.334,5.639,4.663,8.479,6.956c-2.507,2.169-4.987,4.36-7.412,6.594c-0.331,0.305-0.478,0.633-0.475,0.879  c-0.346,0.29-0.282,0.735,0.464,0.849c5.107,0.773,10.376,0.582,15.596,0.46c5.696-0.133,11.419-0.208,17.106-0.438  c9.205-0.371,17.913-1.162,27.101-0.545c0.402,1.607,1.014,3.173,1.856,4.616c2.529,4.385,6.977,7.604,11.884,8.713  c0.65,0.188,1.371,0.264,2.072,0.362c0.735,0.128,1.308,0.087,1.961,0.13c0.757,0.048,1.387-0.056,2.085-0.08  c0.682-0.047,1.353-0.2,2.028-0.299c2.686-0.533,5.223-1.716,7.399-3.342c2.177-1.629,3.99-3.728,5.275-6.106  c1.294-2.369,2.005-5.052,2.135-7.734C81.884,40.496,80.37,36.063,77.703,32.733z M79.918,45.498c-0.1,0.59-0.142,1.181-0.283,1.773  c-0.167,0.586-0.251,1.198-0.484,1.766c-0.772,2.318-2.066,4.467-3.753,6.251c-3.354,3.62-8.38,5.536-13.311,5.222  c-2.464-0.146-4.87-0.816-7.055-1.983c-2.167-1.18-4.078-2.826-5.573-4.793c-1.496-1.967-2.577-4.255-3.131-6.677  c-0.099-0.612-0.228-1.222-0.307-1.838c-0.035-0.617-0.115-1.249-0.118-1.856c-0.007-1.279,0.103-2.493,0.348-3.73  c0.392-1.681-0.222-2.633-0.966-0.706c-0.196,0.57-0.352,1.151-0.504,1.746c-0.104,0.597-0.264,1.271-0.302,1.823l-0.085,0.859  c-0.039,0.38-0.012,0.634-0.019,0.959c0.007,0.617-0.013,1.239,0.083,1.854c0.052,0.522,0.141,1.043,0.241,1.562  c-7.437-1.975-17.452-0.402-25.133-0.22C8.519,47.771-2.679,47.469-13.708,48.03c2.781-1.808,5.418-3.87,7.99-6.032l0.01-0.009  c0.634-0.532,0.715-1.478,0.183-2.111c-0.058-0.068-0.126-0.135-0.192-0.19c-1.72-1.422-3.475-2.811-5.216-4.202l-2.604-2.088  c2.509-2.185,5.02-4.372,7.525-6.555l0.043-0.038c0.423-0.369,0.467-1.01,0.099-1.434c-0.042-0.049-0.093-0.096-0.142-0.134  c-0.733-0.571-1.461-1.14-2.19-1.708c-2.181-1.662-4.329-3.299-6.466-4.928c2.313-2.113,4.628-4.195,6.986-6.239  c0.013,0.011,0.026,0.022,0.039,0.034c0-0.022,0-0.045,0-0.067c0.362-0.314,0.715-0.635,1.08-0.947  c0.078-0.063,0.089-0.178,0.026-0.256c-0.007-0.008-0.019-0.02-0.027-0.026c-0.361-0.294-0.72-0.595-1.08-0.892  c0-0.041,0-0.081,0-0.122c-0.024,0.02-0.048,0.042-0.073,0.062c-2.313-1.914-4.594-3.902-6.829-6.021  C-4.314,6.445,9.943,4.771,20.792,4.582c15.483-0.27,31.183,0.066,46.626-0.563c0.122-0.005,0.228-0.023,0.335-0.041  c-3.396,0.843-6.123,3.8-8.635,6.454l-0.171,0.181c-0.358,0.378-0.342,0.976,0.037,1.333c0.04,0.039,0.089,0.076,0.134,0.106  c1.005,0.653,1.972,1.288,2.821,1.938c1.964,1.5,3.879,3.08,5.797,4.659c-2.635,2.227-5.247,4.479-7.657,6.928  c-0.164,0.167-0.181,0.402-0.11,0.603c-1.729,0.324-3.415,0.879-4.987,1.695c-3.697,1.941-6.819,5.117-8.561,9.122  c-0.379,0.882-0.021,1.311,0.382,0.653c1.726-2.917,4.163-5.597,7.276-7.472c3.121-1.879,6.794-2.907,10.741-2.58  c1.782,0.156,3.721,0.628,5.454,1.409c1.75,0.778,3.366,1.861,4.743,3.173c2.799,2.61,4.431,6.203,4.871,9.644l0.118,1.784  C79.978,44.235,79.973,44.884,79.918,45.498z"/><path d="M71.799,47.873c-0.068-0.364-0.095-0.733-0.222-1.075c-0.726-2.376-3.185-3.647-5.146-3.479  c-0.226,0.017-0.447,0.026-0.671,0.04c-0.515-0.388-1.062-0.67-1.633-0.865c-0.002-0.021-0.003-0.043-0.005-0.064  c-0.212-2.491-0.559-4.905-0.706-7.329c0.739-0.058,1.477-0.125,2.213-0.223c0.418-0.056,0.563-0.94,0.104-1.105  c-0.786-0.283-1.582-0.436-2.382-0.511c-0.013-1.331,0.052-2.67,0.271-4.035c0.041-0.254-0.445-0.327-0.589-0.126  c-0.879,1.228-1.24,2.638-1.337,4.115c-0.291,0.003-0.58-0.004-0.871,0.009l-0.826,0.041c-0.361,0.043-0.721,0.096-1.075,0.153  c-1.542,0.346-2.897,1.336-3.662,2.661c-0.167,0.352-0.354,0.66-0.478,1.051c-0.099,0.382-0.24,0.86-0.248,1.161l-0.013,0.45  l-0.006,0.225l-0.001,0.057l-0.005,0.134l0.005,0.034l0.021,0.138c0.069,0.364,0.095,0.733,0.222,1.075  c0.726,2.376,3.185,3.647,5.145,3.479c0.226-0.017,0.447-0.026,0.671-0.04c0.609,0.46,1.267,0.769,1.954,0.964  c0.041,2.435,0.029,4.878,0.095,7.315c-0.641,0.054-1.28,0.118-1.918,0.202c-0.418,0.056-0.563,0.94-0.104,1.105  c0.689,0.248,1.386,0.39,2.087,0.474c0.062,1.296,0.154,2.59,0.306,3.878c0.056,0.47,0.94,0.634,1.105,0.117  c0.412-1.287,0.547-2.597,0.567-3.912c0.281-0.003,0.562,0.003,0.843-0.009l0.825-0.041c0.361-0.043,0.722-0.096,1.075-0.153  c1.542-0.346,2.898-1.335,3.663-2.661c0.167-0.352,0.354-0.66,0.477-1.051c0.1-0.382,0.24-0.859,0.249-1.161l0.013-0.45l0.006-0.225  l0.001-0.057l0.005-0.134l-0.005-0.034L71.799,47.873z M56.216,39.217v-0.005C56.215,39.23,56.215,39.242,56.216,39.217z   M60.048,42.182l-0.185,0.001c-0.221-0.004-0.548,0.026-0.683,0.002c-0.131-0.023-0.269-0.031-0.423-0.031l-0.52-0.151  c-0.688-0.255-1.306-0.771-1.651-1.403l-0.262-0.705l-0.052-0.376l-0.027-0.188l-0.015-0.095l-0.007-0.048l-0.004-0.023L56.22,39.16  l0.067-0.85l0.211-0.676c0.396-0.955,1.212-1.728,2.185-2.092c0.499-0.195,0.979-0.25,1.563-0.282l1.456-0.056  c0.142,2.211,0.633,4.46,0.73,6.396c0.009,0.181,0.013,0.362,0.021,0.544c-0.654-0.063-1.323-0.059-1.998-0.009l-0.366,0.031  l-0.046,0.004l-0.023,0.002l-0.012,0.001l-0.003,0.001c0.071,0.004,0.112,0.006,0.134,0.007H60.048z M60.142,42.182  c-0.009,0-0.014-0.001,0.005,0H60.142z M69.84,49.566c-0.396,0.955-1.213,1.729-2.185,2.092c-0.499,0.195-0.979,0.25-1.564,0.282  l-1.459,0.056c-0.021-0.492-0.047-0.984-0.071-1.476c-0.089-1.808-0.155-3.621-0.257-5.432c0.521,0.026,1.048,0.016,1.578-0.023  l0.367-0.031l0.046-0.004l0.022-0.002l0.012-0.001c-0.063-0.004,0.146,0.007-0.141-0.008h0.003h0.006h0.092l0.185-0.001  c0.222,0.004,0.548-0.026,0.684-0.002c0.13,0.023,0.269,0.031,0.423,0.031l0.52,0.151c0.688,0.255,1.306,0.771,1.651,1.403  l0.262,0.705l0.052,0.376l0.027,0.188l0.015,0.095l0.007,0.048l0.004,0.023l0.001,0.003l-0.067,0.85L69.84,49.566z M70.122,47.984  l-0.001,0.014v0.001C70.124,47.954,70.12,48.007,70.122,47.984z"/><text x="-17.5" y="97.5" fill="#000000" font-size="5px" font-weight="bold" font-family="'Helvetica Neue', Helvetica, Arial-Unicode, Arial, Sans-serif">Created by Vectplus</text><text x="-17.5" y="102.5" fill="#000000" font-size="5px" font-weight="bold" font-family="'Helvetica Neue', Helvetica, Arial-Unicode, Arial, Sans-serif">from the Noun Project</text></svg>